<svg xmlns="http://www.w3.org/2000/svg" viewBox="0 0 64 64" width="64" height="64">
  <rect x="24" y="12" width="4" height="4" fill="#7c5ce0"/>
  <rect x="28" y="12" width="4" height="4" fill="#7c5ce0"/>
  <rect x="32" y="12" width="4" height="4" fill="#7c5ce0"/>
  <rect x="36" y="12" width="4" height="4" fill="#7c5ce0"/>
  <rect x="20" y="16" width="4" height="4" fill="#7c5ce0"/>
  <rect x="24" y="16" width="4" height="4" fill="#a78bfa"/>
  <rect x="28" y="16" width="4" height="4" fill="#a78bfa"/>
  <rect x="32" y="16" width="4" height="4" fill="#7c5ce0"/>
  <rect x="36" y="16" width="4" height="4" fill="#7c5ce0"/>
  <rect x="40" y="16" width="4" height="4" fill="#7c5ce0"/>
  <rect x="16" y="20" width="4" height="4" fill="#7c5ce0"/>
  <rect x="20" y="20" width="4" height="4" fill="#a78bfa"/>
  <rect x="24" y="20" width="4" height="4" fill="#a78bfa"/>
  <rect x="28" y="20" width="4" height="4" fill="#7c5ce0"/>
  <rect x="32" y="20" width="4" height="4" fill="#7c5ce0"/>
  <rect x="36" y="20" width="4" height="4" fill="#7c5ce0"/>
  <rect x="40" y="20" width="4" height="4" fill="#7c5ce0"/>
  <rect x="44" y="20" width="4" height="4" fill="#7c5ce0"/>
  <rect x="16" y="24" width="4" height="4" fill="#7c5ce0"/>
  <rect x="20" y="24" width="4" height="4" fill="#7c5ce0"/>
  <rect x="24" y="24" width="4" height="4" fill="#1f2937"/>
  <rect x="28" y="24" width="4" height="4" fill="#7c5ce0"/>
  <rect x="32" y="24" width="4" height="4" fill="#7c5ce0"/>
  <rect x="36" y="24" width="4" height="4" fill="#1f2937"/>
  <rect x="40" y="24" width="4" height="4" fill="#7c5ce0"/>
  <rect x="44" y="24" width="4" height="4" fill="#7c5ce0"/>
  <rect x="16" y="28" width="4" height="4" fill="#7c5ce0"/>
  <rect x="20" y="28" width="4" height="4" fill="#f472b6"/>
  <rect x="24" y="28" width="4" height="4" fill="#7c5ce0"/>
  <rect x="28" y="28" width="4" height="4" fill="#7c5ce0"/>
  <rect x="32" y="28" width="4" height="4" fill="#7c5ce0"/>
  <rect x="36" y="28" width="4" height="4" fill="#7c5ce0"/>
  <rect x="40" y="28" width="4" height="4" fill="#f472b6"/>
  <rect x="44" y="28" width="4" height="4" fill="#5b3cc4"/>
  <rect x="16" y="32" width="4" height="4" fill="#7c5ce0"/>
  <rect x="20" y="32" width="4" height="4" fill="#7c5ce0"/>
  <rect x="24" y="32" width="4" height="4" fill="#7c5ce0"/>
  <rect x="28" y="32" width="4" height="4" fill="#ec4899"/>
  <rect x="32" y="32" width="4" height="4" fill="#ec4899"/>
  <rect x="36" y="32" width="4" height="4" fill="#7c5ce0"/>
  <rect x="40" y="32" width="4" height="4" fill="#5b3cc4"/>
  <rect x="44" y="32" width="4" height="4" fill="#5b3cc4"/>
  <rect x="20" y="36" width="4" height="4" fill="#7c5ce0"/>
  <rect x="24" y="36" width="4" height="4" fill="#7c5ce0"/>
  <rect x="28" y="36" width="4" height="4" fill="#7c5ce0"/>
  <rect x="32" y="36" width="4" height="4" fill="#7c5ce0"/>
  <rect x="36" y="36" width="4" height="4" fill="#5b3cc4"/>
  <rect x="40" y="36" width="4" height="4" fill="#5b3cc4"/>
  <rect x="24" y="40" width="4" height="4" fill="#7c5ce0"/>
  <rect x="28" y="40" width="4" height="4" fill="#7c5ce0"/>
  <rect x="32" y="40" width="4" height="4" fill="#7c5ce0"/>
  <rect x="36" y="40" width="4" height="4" fill="#7c5ce0"/>
  <rect x="20" y="44" width="4" height="4" fill="#7c5ce0"/>
  <rect x="24" y="44" width="4" height="4" fill="#7c5ce0"/>
  <rect x="36" y="44" width="4" height="4" fill="#7c5ce0"/>
  <rect x="40" y="44" width="4" height="4" fill="#7c5ce0"/>
  <rect x="20" y="48" width="4" height="4" fill="#5b3cc4"/>
  <rect x="24" y="48" width="4" height="4" fill="#5b3cc4"/>
  <rect x="36" y="48" width="4" height="4" fill="#5b3cc4"/>
  <rect x="40" y="48" width="4" height="4" fill="#5b3cc4"/>
</svg>
