<svg xmlns="http://www.w3.org/2000/svg" viewBox="0 0 340 220">
    <defs>
      <linearGradient id="bg-06B6D4" x1="0" y1="0" x2="1" y2="1">
        <stop offset="0%" stop-color="#06B6D4" />
        <stop offset="100%" stop-color="#3B82F6" />
      </linearGradient>
      <filter id="shadow" x="-20%" y="-20%" width="140%" height="140%">
        <feDropShadow dx="2" dy="4" stdDeviation="4" flood-opacity="0.1"/>
      </filter>
    </defs>
    <rect x="10" y="10" width="320" height="200" rx="24" fill="url(#bg-06B6D4)" opacity="0.15" />
    <rect x="10" y="10" width="320" height="200" rx="24" fill="none" stroke="rgba(15,23,42,0.08)" stroke-width="1.5"/>
    
    <!-- 波浪背景 -->
    <path d="M20,160 Q50,140 80,160 T140,160 T200,160 T260,160 T320,160" fill="none" stroke="#93C5FD" stroke-width="2" stroke-opacity="0.6"/>
    <path d="M30,175 Q60,155 90,175 T150,175 T210,175 T270,175 T330,175" fill="none" stroke="#60A5FA" stroke-width="2" stroke-opacity="0.8"/>
    
    <!-- 龙舟简笔 -->
    <g transform="translate(140, 130)">
       <!-- 舟身 -->
       <path d="M-60,10 Q0,35 100,10 L90,-5 Q0,20 -60,-5 Z" fill="#0E7490" />
       <!-- 龙头 -->
        <g transform="translate(-60, -5)">
            <path d="M0,0 Q-10,-20 10,-30 Q25,-35 30,-20 Q35,-10 20,5 Z" fill="#EAB308" /> <!-- 头 -->
            <circle cx="15" cy="-20" r="2.5" fill="white"/> <!-- 眼 -->
            <circle cx="16" cy="-20" r="1" fill="black"/>
            <path d="M5,-30 Q0,-45 15,-40" stroke="#EAB308" stroke-width="3" fill="none" stroke-linecap="round" /> <!-- 角 -->
            <path d="M30,-20 Q40,-15 35,-5" stroke="#EAB308" stroke-width="3" fill="none" stroke-linecap="round"/> <!-- 须 -->
        </g>
       <!-- 鼓槌 -->
       <line x1="0" y1="-10" x2="10" y2="5" stroke="#94A3B8" stroke-width="3" stroke-linecap="round" />
       <circle cx="0" cy="-12" r="3" fill="#CBD5E1" />
    </g>

  </svg>