<svg xmlns="http://www.w3.org/2000/svg" viewBox="0 0 340 220">
    <defs>
      <linearGradient id="bg-F59E0B" x1="0" y1="0" x2="1" y2="1">
        <stop offset="0%" stop-color="#F59E0B" />
        <stop offset="100%" stop-color="#F97316" />
      </linearGradient>
      <filter id="shadow" x="-20%" y="-20%" width="140%" height="140%">
        <feDropShadow dx="2" dy="4" stdDeviation="4" flood-opacity="0.1"/>
      </filter>
    </defs>
    <rect x="10" y="10" width="320" height="200" rx="24" fill="url(#bg-F59E0B)" opacity="0.15" />
    <rect x="10" y="10" width="320" height="200" rx="24" fill="none" stroke="rgba(15,23,42,0.08)" stroke-width="1.5"/>
    
    <g transform="translate(170, 110)">
      <!-- 齿轮 (简化) -->
      <path d="M-35,-35 h20 l5,-10 h20 l5,10 h20 v20 l10,5 v20 l-10,5 v20 h-20 l-5,10 h-20 l-5,-10 h-20 v-20 l-10,-5 v-20 l10,-5 Z" 
            fill="none" stroke="#B45309" stroke-width="3" opacity="0.2" transform="rotate(15)"/>
            
      <!-- 麦穗 (左) -->
      <g transform="stroke:#F59E0B; stroke-width:2; fill:#FCD34D" >
         <ellipse cx="-20" cy="10" rx="4" ry="8" transform="rotate(-30, -20, 10)" />
         <ellipse cx="-20" cy="-5" rx="4" ry="8" transform="rotate(-30, -20, -5)" />
         <ellipse cx="-20" cy="-20" rx="4" ry="8" transform="rotate(-30, -20, -20)" />
         <path d="M-20,40 Q-20,0 -20,-30" stroke="#D97706" fill="none" />
      </g>
      <!-- 麦穗 (右) -->
      <g transform="scale(-1, 1) stroke:#F59E0B; stroke-width:2; fill:#FCD34D" >
         <ellipse cx="-20" cy="10" rx="4" ry="8" transform="rotate(-30, -20, 10)" />
         <ellipse cx="-20" cy="-5" rx="4" ry="8" transform="rotate(-30, -20, -5)" />
         <ellipse cx="-20" cy="-20" rx="4" ry="8" transform="rotate(-30, -20, -20)" />
         <path d="M-20,40 Q-20,0 -20,-30" stroke="#D97706" fill="none" />
      </g>
      
      <!-- 太阳/勋章核心 -->
      <circle r="18" fill="#FBBF24" stroke="#D97706" stroke-width="2" />
      <g stroke="#FBBF24" stroke-width="2" stroke-linecap="round">
         <line y1="-26" y2="-22" />
         <line y1="26" y2="22" />
         <line x1="-26" x2="-22" />
         <line x1="26" x2="22" />
         <line x1="18" y1="18" x2="15" y2="15" />
         <line x1="-18" y1="-18" x2="-15" y2="-15" />
         <line x1="18" y1="-18" x2="15" y2="-15" />
         <line x1="-18" y1="18" x2="-15" y2="15" />
      </g>
    </g>

  </svg>