<svg xmlns="http://www.w3.org/2000/svg" viewBox="0 0 340 220">
    <defs>
      <linearGradient id="bg-EF4444" x1="0" y1="0" x2="1" y2="1">
        <stop offset="0%" stop-color="#EF4444" />
        <stop offset="100%" stop-color="#F472B6" />
      </linearGradient>
      <filter id="shadow" x="-20%" y="-20%" width="140%" height="140%">
        <feDropShadow dx="2" dy="4" stdDeviation="4" flood-opacity="0.1"/>
      </filter>
    </defs>
    <rect x="10" y="10" width="320" height="200" rx="24" fill="url(#bg-EF4444)" opacity="0.15" />
    <rect x="10" y="10" width="320" height="200" rx="24" fill="none" stroke="rgba(15,23,42,0.08)" stroke-width="1.5"/>
    
    <!-- 飘带 -->
    <path d="M40,160 Q100,100 170,160 T300,160" fill="none" stroke="#FBBF24" stroke-width="3" opacity="0.6" />
    <path d="M60,170 Q120,120 190,170 T320,170" fill="none" stroke="#FBBF24" stroke-width="2" opacity="0.4" />

    <!-- 红旗 -->
    <g transform="translate(130, 60)">
       <path d="M0,0 L0,100" stroke="#7F1D1D" stroke-width="4" stroke-linecap="round" />
       <!-- 旗面 (飘动) -->
       <path d="M2,2 Q40,-10 80,10 Q60,30 80,60 Q40,40 2,60 Z" fill="#DC2626" />
       <!-- 大星 -->
       <g transform="translate(15, 15) scale(0.6)">
         <polygon points="10,1 12,7 19,7 13,11 15,17 10,13 5,17 7,11 1,7 8,7" fill="#FBBF24"/>
       </g>
       <!-- 小星 -->
       <g transform="translate(30, 8) scale(0.3)">
         <polygon points="10,1 12,7 19,7 13,11 15,17 10,13 5,17 7,11 1,7 8,7" fill="#FBBF24"/>
       </g>
       <g transform="translate(36, 14) scale(0.3) rotate(20)">
         <polygon points="10,1 12,7 19,7 13,11 15,17 10,13 5,17 7,11 1,7 8,7" fill="#FBBF24"/>
       </g>
        <g transform="translate(36, 22) scale(0.3) rotate(40)">
         <polygon points="10,1 12,7 19,7 13,11 15,17 10,13 5,17 7,11 1,7 8,7" fill="#FBBF24"/>
       </g>
    </g>
    
    <!-- 气球 -->
    <circle cx="90" cy="80" r="12" fill="#FCA5A5" opacity="0.8"/>
    <line x1="90" y1="92" x2="90" y2="120" stroke="#999" stroke-width="1"/>
    
    <circle cx="250" cy="100" r="10" fill="#FBBF24" opacity="0.8"/>
    <line x1="250" y1="110" x2="250" y2="130" stroke="#999" stroke-width="1"/>

  </svg>