<svg xmlns="http://www.w3.org/2000/svg" viewBox="0 0 340 220">
    <defs>
      <linearGradient id="bg-8B5CF6" x1="0" y1="0" x2="1" y2="1">
        <stop offset="0%" stop-color="#8B5CF6" />
        <stop offset="100%" stop-color="#EC4899" />
      </linearGradient>
      <filter id="shadow" x="-20%" y="-20%" width="140%" height="140%">
        <feDropShadow dx="2" dy="4" stdDeviation="4" flood-opacity="0.1"/>
      </filter>
    </defs>
    <rect x="10" y="10" width="320" height="200" rx="24" fill="url(#bg-8B5CF6)" opacity="0.15" />
    <rect x="10" y="10" width="320" height="200" rx="24" fill="none" stroke="rgba(15,23,42,0.08)" stroke-width="1.5"/>
    
    <g transform="translate(170,110)">
      <!-- 烟花绽放 1 -->
      <g transform="translate(-60, -40) scale(0.8)">
        <circle r="4" fill="#F472B6" />
        <path d="M0,-20 L0,-35 M14,-14 L24,-24 M20,0 L35,0 M14,14 L24,24 M0,20 L0,35 M-14,14 L-24,24 M-20,0 L-35,0 M-14,-14 L-24,-24" stroke="#F472B6" stroke-width="2" stroke-linecap="round" />
      </g>
      <!-- 烟花绽放 2 -->
      <g transform="translate(60, -20) scale(0.6)">
        <circle r="4" fill="#A78BFA" />
        <path d="M0,-20 L0,-35 M14,-14 L24,-24 M20,0 L35,0 M14,14 L24,24 M0,20 L0,35 M-14,14 L-24,24 M-20,0 L-35,0 M-14,-14 L-24,-24" stroke="#A78BFA" stroke-width="2" stroke-linecap="round" />
      </g>
      <!-- 主烟花 -->
      <g transform="scale(1.2)">
         <circle r="6" fill="#FBBF24" />
         <path d="M0,-24 L0,-40 M17,-17 L28,-28 M24,0 L40,0 M17,17 L28,28 M0,24 L0,40 M-17,17 L-28,28 M-24,0 L-40,0 M-17,-17 L-28,-28" stroke="#F59E0B" stroke-width="2.5" stroke-linecap="round" />
      </g>
      <!-- 飘带 -->
      <path d="M-100,60 Q-50,20 0,60 T100,60" fill="none" stroke="#F472B6" stroke-width="2" stroke-dasharray="8,8" opacity="0.6"/>
    </g>

  </svg>