<svg xmlns="http://www.w3.org/2000/svg" viewBox="0 0 340 220">
    <defs>
      <linearGradient id="bg-10B981" x1="0" y1="0" x2="1" y2="1">
        <stop offset="0%" stop-color="#10B981" />
        <stop offset="100%" stop-color="#34D399" />
      </linearGradient>
      <filter id="shadow" x="-20%" y="-20%" width="140%" height="140%">
        <feDropShadow dx="2" dy="4" stdDeviation="4" flood-opacity="0.1"/>
      </filter>
    </defs>
    <rect x="10" y="10" width="320" height="200" rx="24" fill="url(#bg-10B981)" opacity="0.15" />
    <rect x="10" y="10" width="320" height="200" rx="24" fill="none" stroke="rgba(15,23,42,0.08)" stroke-width="1.5"/>
    
    <!-- 远山 -->
    <path d="M40,160 Q90,100 140,160 T240,160" fill="none" stroke="#6EE7B7" stroke-width="2" />
    <path d="M180,160 Q230,80 280,160" fill="none" stroke="#34D399" stroke-width="2" opacity="0.8"/>
    
    <!-- 柳枝 -->
    <g transform="translate(300, -10) rotate(15)">
      <path d="M0,0 Q-30,60 -10,120" stroke="#059669" stroke-width="2" fill="none" />
      <g fill="#34D399">
        <ellipse cx="-10" cy="30" rx="3" ry="6" transform="rotate(-15)" />
        <ellipse cx="-18" cy="50" rx="3" ry="6" transform="rotate(-10)" />
        <ellipse cx="-20" cy="70" rx="3" ry="6" transform="rotate(-5)" />
        <ellipse cx="-15" cy="90" rx="3" ry="6" transform="rotate(0)" />
        <ellipse cx="-10" cy="110" rx="3" ry="6" transform="rotate(5)" />
      </g>
    </g>
     <g transform="translate(40, -10) rotate(-10)">
      <path d="M10,0 Q30,50 10,100" stroke="#059669" stroke-width="2" fill="none" />
       <g fill="#6EE7B7">
        <ellipse cx="15" cy="30" rx="2" ry="5" transform="rotate(15)" />
        <ellipse cx="20" cy="50" rx="2" ry="5" transform="rotate(10)" />
        <ellipse cx="18" cy="70" rx="2" ry="5" transform="rotate(5)" />
      </g>
    </g>
    
    <!-- 细雨 -->
    <g stroke="#A7F3D0" stroke-width="1.5" stroke-linecap="round">
       <line x1="100" y1="50" x2="95" y2="60" />
       <line x1="150" y1="70" x2="145" y2="80" />
       <line x1="200" y1="40" x2="195" y2="50" />
       <line x1="120" y1="100" x2="115" y2="110" />
       <line x1="230" y1="90" x2="225" y2="100" />
    </g>

  </svg>