<svg xmlns="http://www.w3.org/2000/svg" viewBox="0 0 340 220">
    <defs>
      <linearGradient id="bg-EF4444" x1="0" y1="0" x2="1" y2="1">
        <stop offset="0%" stop-color="#EF4444" />
        <stop offset="100%" stop-color="#F59E0B" />
      </linearGradient>
      <filter id="shadow" x="-20%" y="-20%" width="140%" height="140%">
        <feDropShadow dx="2" dy="4" stdDeviation="4" flood-opacity="0.1"/>
      </filter>
    </defs>
    <rect x="10" y="10" width="320" height="200" rx="24" fill="url(#bg-EF4444)" opacity="0.15" />
    <rect x="10" y="10" width="320" height="200" rx="24" fill="none" stroke="rgba(15,23,42,0.08)" stroke-width="1.5"/>
    
    <!-- 左灯笼 -->
    <g transform="translate(70, 40)">
      <rect x="-2" y="0" width="4" height="20" fill="#B91C1C" />
      <path d="M-20,20 Q-28,45 -20,70 L20,70 Q28,45 20,20 Z" fill="#DC2626" />
      <path d="M-20,20 Q0,5 20,20" fill="#B91C1C" /> <!-- Top cap -->
      <rect x="-2" y="70" width="4" height="6" fill="#F59E0B" />
      <g stroke="#B91C1C" stroke-width="1.5" fill="none">
         <path d="M-10,20 Q-14,45 -10,70 M0,20 V70 M10,20 Q14,45 10,70" opacity="0.3"/>
      </g>
      <!-- 穗 -->
      <path d="M0,76 V100" stroke="#B91C1C" stroke-width="2" />
      <path d="M-4,78 V95 M4,78 V95" stroke="#B91C1C" stroke-width="1.5" />
    </g>

    <!-- 右灯笼 (小) -->
    <g transform="translate(260, 30) scale(0.8)">
      <rect x="-2" y="0" width="4" height="20" fill="#B91C1C" />
      <path d="M-20,20 Q-28,45 -20,70 L20,70 Q28,45 20,20 Z" fill="#DC2626" />
      <path d="M-20,20 Q0,5 20,20" fill="#B91C1C" />
      <rect x="-2" y="70" width="4" height="6" fill="#F59E0B" />
      <g stroke="#B91C1C" stroke-width="1.5" fill="none">
         <path d="M-10,20 Q-14,45 -10,70 M0,20 V70 M10,20 Q14,45 10,70" opacity="0.3"/>
      </g>
      <path d="M0,76 V100" stroke="#B91C1C" stroke-width="2" />
    </g>

    <!-- 底部祥云 -->
    <path d="M40,180 Q60,160 80,180 T120,180 T160,180 T200,180" fill="none" stroke="#FCA5A5" stroke-width="3" stroke-linecap="round" opacity="0.6" />
    <path d="M140,195 Q160,175 180,195 T220,195 T260,195 T300,195" fill="none" stroke="#FECACA" stroke-width="3" stroke-linecap="round" opacity="0.4" />

  </svg>